<?xml version="1.0" encoding="iso-8859-1"?>
<!-- Generator: Adobe Illustrator 19.0.0, SVG Export Plug-In . SVG Version: 6.00 Build 0)  -->
<svg version="1.1" id="Layer_1" xmlns="http://www.w3.org/2000/svg" xmlns:xlink="http://www.w3.org/1999/xlink" x="0px" y="0px"
	 viewBox="0 0 501.333 501.333" style="enable-background:new 0 0 501.333 501.333;" xml:space="preserve">
<g>
	<g>
		<path d="M414.933,188.8c-20.267-73.6-87.467-125.867-164.267-125.867s-144,51.2-164.267,124.8C35.2,204.8,0,253.867,0,309.333
			C0,380.8,57.6,438.4,129.067,438.4h243.2c71.467,0,129.067-57.6,129.067-128C501.333,254.933,467.2,206.933,414.933,188.8z
			 M372.267,397.866h-243.2c-48,0-87.467-39.467-87.467-87.467c0-40.533,27.733-74.667,67.2-84.267
			c8.533-2.133,14.933-8.533,16-17.067c11.733-60.8,64-104.533,125.867-104.533c61.867,0,114.133,43.733,125.867,104.533
			c2.133,8.533,7.467,14.933,16,17.067c39.467,8.533,67.2,43.733,67.2,84.267C459.733,358.4,420.267,397.866,372.267,397.866z"/>
	</g>
</g>
<g>
	<g>
		<path d="M195.199,339.2c-1.067-1.067-2.133-1.067-3.2-1.067c-1.067,0-2.133,0-3.2,1.067c-3.2,2.133-7.467,3.2-10.667,4.267
			c-4.267,1.067-8.533,2.133-13.867,2.133c-11.733,0-20.267-3.2-27.733-10.667c-6.4-6.4-9.6-14.933-9.6-26.667
			c0-10.667,3.2-19.2,9.6-26.667c3.201-4.267,7.467-6.4,11.734-8.534c4.267-2.133,9.6-3.2,14.933-3.2
			c5.333,0,10.667,1.067,13.867,2.133c4.267,1.067,7.467,3.2,10.667,4.267c1.067,0,2.133,1.067,3.2,1.067c1.067,0,2.133,0,3.2-1.067
			c1.067-1.067,1.067-2.133,1.067-3.2c0-1.067,0-2.133-1.067-3.2c-1.067-1.067-2.133-2.133-4.267-3.2
			c-2.133-1.067-6.4-3.2-10.667-4.267c-5.333-2.133-10.667-2.133-17.067-2.133c-13.867,0-25.6,4.267-34.133,12.8
			c-8.533,8.533-13.867,20.267-13.867,35.2c0,14.933,4.267,26.667,13.867,35.2c4.267,4.267,9.6,7.467,14.933,9.6
			c5.333,2.133,11.733,3.2,19.2,3.2c6.4,0,12.8-1.067,17.067-2.133c5.333-2.133,9.6-3.2,13.867-6.4c2.133-1.067,3.2-3.2,3.2-5.333
			C196.266,341.333,196.266,340.266,195.199,339.2z"/>
	</g>
</g>
<g>
	<g>
		<path d="M290.134,273.066c-8.534-9.6-19.2-13.867-34.133-13.867c-13.867,0-25.6,4.267-34.133,13.867
			c-8.533,8.533-12.8,20.267-12.8,35.2c0,13.867,4.267,25.6,12.8,35.2c8.533,9.6,20.267,13.867,34.133,13.867
			c13.867,0,25.6-4.267,34.133-13.867c8.533-8.533,12.8-20.267,12.8-35.2C302.934,294.399,298.667,282.666,290.134,273.066z
			 M282.667,333.866c-6.4,7.467-14.933,10.667-25.6,10.667c-10.667,0-19.2-3.2-25.6-10.667c-6.4-6.4-9.6-16-9.6-26.667
			c0-10.667,3.2-19.2,9.6-26.667s14.933-10.667,25.6-10.667c10.667,0,19.2,3.2,25.6,10.667c6.4,6.4,9.6,16,9.6,26.667
			C291.2,317.866,288,326.4,282.667,333.866z"/>
	</g>
</g>
<g>
	<g>
		<path d="M385.067,342.399c-1.067-1.067-2.133-2.133-4.267-2.133h-46.933c-0.001,0,2.133-2.133,5.333-5.333
			c3.2-2.133,6.4-5.333,10.667-7.467c4.267-3.2,8.533-5.333,12.8-8.533c4.267-3.2,8.533-6.4,11.733-9.6
			c8.533-7.467,12.8-16,12.8-23.467c0-8.533-3.2-14.933-9.6-20.267c-6.4-5.333-12.8-7.467-22.4-7.467
			c-10.667,0-21.333,2.133-29.867,6.4c-2.133,1.067-3.2,2.133-3.2,4.267s0,3.2,1.067,4.267c1.067,1.067,2.133,1.067,3.2,1.067
			c1.067,0,2.133,0,3.2-1.067c7.467-3.2,14.933-5.333,23.467-5.333c7.467,0,12.8,2.133,17.067,5.333c2.133,1.067,3.2,3.2,3.2,5.333
			c1.067,2.133,1.067,4.267,1.067,7.467c0,3.2-1.067,6.4-4.267,9.6c-2.133,3.2-6.4,6.4-9.6,8.533c-4.267,3.2-8.533,5.333-12.8,8.533
			c-4.267,3.2-8.533,6.4-12.8,9.6c-4.267,3.2-7.467,6.4-9.6,10.667c-3.2,4.267-4.267,8.533-4.267,12.8
			c0,2.133,1.067,4.267,2.133,5.333c1.067,1.067,3.2,2.133,5.333,2.133h52.267c2.133,0,3.2-1.067,4.267-2.133
			c1.067-1.067,2.133-2.133,2.133-4.267C387.201,344.533,386.134,343.466,385.067,342.399z"/>
	</g>
</g>
<g>
</g>
<g>
</g>
<g>
</g>
<g>
</g>
<g>
</g>
<g>
</g>
<g>
</g>
<g>
</g>
<g>
</g>
<g>
</g>
<g>
</g>
<g>
</g>
<g>
</g>
<g>
</g>
<g>
</g>
</svg>
