<?xml version="1.0" encoding="iso-8859-1"?>
<!-- Generator: Adobe Illustrator 18.0.0, SVG Export Plug-In . SVG Version: 6.00 Build 0)  -->
<!DOCTYPE svg PUBLIC "-//W3C//DTD SVG 1.1//EN" "http://www.w3.org/Graphics/SVG/1.1/DTD/svg11.dtd">
<svg version="1.1" id="Capa_1" xmlns="http://www.w3.org/2000/svg" xmlns:xlink="http://www.w3.org/1999/xlink" x="0px" y="0px"
	 viewBox="0 0 292.916 292.916" style="enable-background:new 0 0 292.916 292.916;" xml:space="preserve">
<g>
	<path d="M152.075,112.518c-10.415,0-16.481,9.909-16.481,23.156c0,13.346,6.268,22.751,16.582,22.751
		c10.415,0,16.382-9.909,16.382-23.156C168.558,123.034,162.693,112.518,152.075,112.518z"/>
	<path d="M146.458,0L0,146.452l146.457,146.464l146.458-146.458L146.458,0z M100.203,157.818c4.651,0,9.808-1.011,12.842-2.225
		l2.326,12.033c-2.832,1.415-9.202,2.933-17.493,2.933c-23.56,0-35.694-14.662-35.694-34.076c0-23.257,16.583-36.199,37.211-36.199
		c7.988,0,14.055,1.617,16.785,3.034l-3.135,12.235c-3.135-1.314-7.483-2.528-12.943-2.528c-12.235,0-21.74,7.381-21.74,22.549
		C78.362,149.223,86.451,157.818,100.203,157.818z M151.368,170.659c-20.223,0-32.054-15.269-32.054-34.683
		c0-20.424,13.045-35.693,33.166-35.693c20.93,0,32.357,15.673,32.357,34.48C184.837,157.11,171.288,170.659,151.368,170.659z
		 M217.915,197.282h-31.076v-6.201l5.663-5.124c9.572-8.561,14.223-13.482,14.358-18.604c0-3.572-2.157-6.404-7.212-6.404
		c-3.775,0-7.078,1.887-9.37,3.641l-2.899-7.348c3.303-2.494,8.427-4.516,14.358-4.516c9.909,0,15.37,5.797,15.37,13.751
		c0,7.348-5.326,13.213-11.662,18.875l-4.044,3.37v0.135h16.515V197.282z"/>
</g>
<g>
</g>
<g>
</g>
<g>
</g>
<g>
</g>
<g>
</g>
<g>
</g>
<g>
</g>
<g>
</g>
<g>
</g>
<g>
</g>
<g>
</g>
<g>
</g>
<g>
</g>
<g>
</g>
<g>
</g>
</svg>
