<?xml version="1.0" encoding="iso-8859-1"?>
<!-- Generator: Adobe Illustrator 19.0.0, SVG Export Plug-In . SVG Version: 6.00 Build 0)  -->
<svg version="1.1" id="Layer_1" xmlns="http://www.w3.org/2000/svg" xmlns:xlink="http://www.w3.org/1999/xlink" x="0px" y="0px"
	 viewBox="0 0 512 512" style="enable-background:new 0 0 512 512;" xml:space="preserve">
<g>
	<g>
		<path d="M264.06,3.68C262.034,1.343,259.094,0,256,0c-3.094,0-6.034,1.343-8.06,3.68C240.43,12.344,64,217.057,64,320
			c0,105.87,86.13,192,192,192c105.87,0,192-86.13,192-192C448,217.057,271.57,12.344,264.06,3.68z M256,490.667
			c-94.105,0-170.667-76.561-170.667-170.667c0-83.262,135.827-251.135,170.672-292.825c14.978,17.9,48.599,59.077,81.921,106.717
			C395.981,216.895,426.667,281.25,426.667,320C426.667,414.106,350.106,490.667,256,490.667z"/>
	</g>
</g>
<g>
	<g>
		<path d="M256,437.333c-64.698,0-117.333-52.635-117.333-117.333c0-5.89-4.776-10.667-10.667-10.667
			c-5.89,0-10.667,4.776-10.667,10.667c0,76.461,62.206,138.667,138.667,138.667c5.891,0,10.667-4.776,10.667-10.667
			C266.667,442.11,261.891,437.333,256,437.333z"/>
	</g>
</g>
<g>
</g>
<g>
</g>
<g>
</g>
<g>
</g>
<g>
</g>
<g>
</g>
<g>
</g>
<g>
</g>
<g>
</g>
<g>
</g>
<g>
</g>
<g>
</g>
<g>
</g>
<g>
</g>
<g>
</g>
</svg>
