<?xml version="1.0" encoding="iso-8859-1"?>
<!-- Generator: Adobe Illustrator 19.0.0, SVG Export Plug-In . SVG Version: 6.00 Build 0)  -->
<svg version="1.1" id="Layer_1" xmlns="http://www.w3.org/2000/svg" xmlns:xlink="http://www.w3.org/1999/xlink" x="0px" y="0px"
	 viewBox="0 0 512 512" style="enable-background:new 0 0 512 512;" xml:space="preserve">
<g>
	<g>
		<path d="M128.174,433.825c-36.136,0-66.794-26.988-71.313-62.774c-0.722-5.726-5.963-9.781-11.676-9.057
			c-5.725,0.723-9.78,5.951-9.057,11.676c5.835,46.208,45.406,81.054,92.046,81.054c5.77,0,10.449-4.678,10.449-10.449
			S133.944,433.825,128.174,433.825z"/>
	</g>
</g>
<g>
	<g>
		<path d="M54.315,324.056c-5.426-1.966-11.419,0.835-13.386,6.26c-0.628,1.733-1.213,3.509-1.736,5.277
			c-1.638,5.533,1.521,11.346,7.055,12.983c0.988,0.293,1.986,0.432,2.969,0.432c4.51,0,8.672-2.942,10.015-7.487
			c0.404-1.367,0.856-2.739,1.342-4.078C62.542,332.017,59.739,326.023,54.315,324.056z"/>
	</g>
</g>
<g>
	<g>
		<path d="M501.551,185.97c-86.882,0-142.852,65.767-183.72,113.788c-20.632,24.244-40.12,47.143-52.916,47.143
			c-4.911,0-9.213-3.279-10.54-7.993c-4.149-23.446-14.765-45.328-30.923-63.274c-5.041-8.771-19.214-12.786-31.885-15.334
			c-17.04-3.425-39.554-5.311-63.393-5.311c-23.838,0-46.353,1.886-63.394,5.311c-12.67,2.546-26.842,6.563-31.884,15.333
			C11.674,299.206,0,329.569,0,361.347c0,70.676,57.499,128.176,128.174,128.176c0.866,0,3.273-0.044,3.549-0.051
			c65.218-0.911,120.533-20.03,169.067-58.446c41.837-33.116,71.981-75.204,98.576-112.339
			c35.16-49.094,62.932-87.871,102.185-87.871c5.77,0,10.449-4.678,10.449-10.449v-23.947
			C512,190.648,507.321,185.97,501.551,185.97z M128.176,275.886c32.834,0,55.963,3.553,68.176,6.983
			c-12.214,3.43-35.343,6.982-68.176,6.982c-32.835,0-55.964-3.553-68.177-6.982C72.212,279.439,95.342,275.886,128.176,275.886z
			 M131.216,468.579c-0.211,0.003-2.244,0.046-3.042,0.046c-59.152,0-107.277-48.124-107.277-107.278
			c0-22.965,7.301-45.036,20.724-63.339c6.529,3.618,15.144,5.819,23.161,7.43c17.04,3.424,39.554,5.31,63.393,5.31
			s46.353-1.886,63.393-5.31c8.018-1.611,16.632-3.812,23.16-7.43c13.423,18.303,20.723,40.374,20.723,63.339
			C235.452,419.483,188.968,466.963,131.216,468.579z M491.103,210.589L491.103,210.589c-44.148,5.763-74.257,47.799-108.727,95.929
			c-39.039,54.511-85.364,119.176-165.777,147.538c23.302-22.235,38.252-53.142,39.636-87.485c2.776,0.788,5.685,1.229,8.681,1.229
			c22.452,0,42.918-24.049,68.831-54.497c38.506-45.246,85.998-101.048,157.356-106.07V210.589z"/>
	</g>
</g>
<g>
	<g>
		<path d="M182.151,70.541c-3.119-27.017-26.136-48.063-53.974-48.063c-28.025,0-51.163,21.331-54.035,48.608
			c-20.521,7.998-34.704,28.136-34.704,50.658c-0.001,29.96,24.373,54.336,54.334,54.336c5.77,0,10.449-4.678,10.449-10.449
			c0-5.771-4.679-10.449-10.449-10.449c-18.437,0-33.437-15-33.437-33.437c0-15.589,11.037-29.321,26.242-32.653
			c4.967-1.088,8.429-5.593,8.203-10.673c-0.023-0.532-0.041-1.067-0.041-1.606c0-18.437,15-33.437,33.437-33.437
			c18.437,0,33.437,15,33.437,33.437c0,0.29-0.013,0.578-0.021,0.866l-0.013,0.356c-0.159,5.029,3.289,9.458,8.206,10.537
			c15.199,3.334,26.231,17.064,26.231,32.649c0,5.771,4.679,10.449,10.449,10.449c5.771,0,10.449-4.678,10.449-10.449
			C216.913,98.68,202.702,78.523,182.151,70.541z"/>
	</g>
</g>
<g>
	<g>
		<path d="M126.845,168.487c-4.081-4.08-10.698-4.08-14.778,0.001c-4.08,4.08-4.08,10.697,0,14.777
			c5.281,5.28,8.189,12.301,8.189,19.768s-2.908,14.49-8.189,19.771c-4.079,4.08-4.079,10.697,0.001,14.777
			c2.041,2.041,4.715,3.06,7.388,3.06c2.675,0,5.349-1.021,7.388-3.06c9.227-9.229,14.309-21.498,14.309-34.547
			C141.154,189.983,136.073,177.715,126.845,168.487z"/>
	</g>
</g>
<g>
	<g>
		<path d="M201.911,135.976c-26.94,0-48.857,21.917-48.857,48.857c0,5.771,4.679,10.449,10.449,10.449
			c5.771,0,10.449-4.678,10.449-10.449c0-15.416,12.543-27.959,27.959-27.959c5.77,0,10.449-4.678,10.449-10.449
			C212.36,140.654,207.681,135.976,201.911,135.976z"/>
	</g>
</g>
<g>
</g>
<g>
</g>
<g>
</g>
<g>
</g>
<g>
</g>
<g>
</g>
<g>
</g>
<g>
</g>
<g>
</g>
<g>
</g>
<g>
</g>
<g>
</g>
<g>
</g>
<g>
</g>
<g>
</g>
</svg>
