<?xml version="1.0" encoding="iso-8859-1"?>
<!-- Generator: Adobe Illustrator 16.0.0, SVG Export Plug-In . SVG Version: 6.00 Build 0)  -->
<!DOCTYPE svg PUBLIC "-//W3C//DTD SVG 1.1//EN" "http://www.w3.org/Graphics/SVG/1.1/DTD/svg11.dtd">
<svg version="1.1" id="Capa_1" xmlns="http://www.w3.org/2000/svg" xmlns:xlink="http://www.w3.org/1999/xlink" x="0px" y="0px"
	 viewBox="0 0 348.122 348.122" style="enable-background:new 0 0 348.122 348.122;"
	 xml:space="preserve">
<g>
	<g>
		<g>
			<path d="M305.323,90.366c-1.838,0-3.64,0.33-5.381,0.976C279.19,36.624,228.546,0,173.437,0
				C118.502,0,67.926,36.488,47.078,90.988c-1.402-0.42-2.828-0.627-4.27-0.627c-13.441,0-23.974,17.714-23.974,40.343
				c0,20.53,8.131,36.608,19.906,39.776c4.482,29.444,17.057,56.346,36.437,77.891c-0.036,0.48-0.054,0.949-0.054,1.447
				c0,54.218,44.105,98.305,98.319,98.305c54.202,0,98.313-44.087,98.313-98.305c0-0.222,0-0.426-0.054-1.002l-0.019-0.409v-0.023
				c19.324-21.474,31.874-48.278,36.401-77.597c12.358-2.195,21.203-18.735,21.203-40.088
				C329.294,108.081,318.768,90.366,305.323,90.366z M226.27,73.862c20.387,0,36.954,16.57,36.954,36.953
				c0,20.372-16.556,36.951-36.954,36.951c-20.374,0-36.947-16.573-36.947-36.951C189.322,90.433,205.896,73.862,226.27,73.862z
				 M123.534,73.862c20.365,0,36.93,16.57,36.93,36.953c0,20.372-16.564,36.951-36.93,36.951c-20.386,0-36.968-16.573-36.968-36.951
				C86.571,90.433,103.147,73.862,123.534,73.862z M262.461,249.823c0,49.072-39.932,89.016-89.024,89.016
				c-49.08,0-89.018-39.943-89.018-89.016c0-0.48,0.024-0.924,0.069-1.381l0.084-1.621c1.6-48.236,40.634-86.021,88.871-86.021
				c47.945,0,86.977,37.562,88.851,85.505v0.541c0.012,0.396,0.048,0.757,0.06,0.973c0,0.216,0.024,0.444,0.042,0.601l1.663,0.126
				l-1.646,0.354L262.461,249.823z"/>
		</g>
		<g>
			<path d="M152.888,227.546c6.149,0,11.148-4.984,11.148-11.127c0-6.148-4.999-11.15-11.148-11.15
				c-6.137,0-11.136,5.002-11.136,11.15S146.757,227.546,152.888,227.546z"/>
		</g>
		<g>
			<path d="M152.888,203.617c7.071,0,12.808,5.729,12.808,12.808c0,7.05-5.737,12.791-12.808,12.791
				c-7.059,0-12.791-5.753-12.791-12.791C140.098,209.339,145.83,203.617,152.888,203.617z"/>
		</g>
		<g>
			<path d="M193.988,227.546c6.143,0,11.127-4.984,11.127-11.127c0-6.148-4.984-11.15-11.127-11.15
				c-6.149,0-11.148,5.002-11.148,11.15C182.837,222.567,187.839,227.546,193.988,227.546z"/>
		</g>
		<g>
			<path d="M193.988,230.872c7.962,0,14.453-6.49,14.453-14.453c0-7.98-6.491-14.478-14.453-14.478
				c-7.98,0-14.475,6.497-14.475,14.478C179.52,224.388,186.008,230.872,193.988,230.872z"/>
		</g>
		<g>
			<path d="M153.521,280.755c6.152,0,11.142,4.989,11.142,11.139c0,6.154-4.99,11.145-11.142,11.145
				c-6.155,0-11.142-4.99-11.142-11.145C142.38,285.744,147.367,280.755,153.521,280.755z"/>
		</g>
		<g>
			<path d="M153.521,304.695c-7.059,0-12.802-5.729-12.802-12.802c0-7.062,5.734-12.791,12.802-12.791
				c7.071,0,12.802,5.729,12.802,12.791C166.324,298.967,160.592,304.695,153.521,304.695z"/>
		</g>
		<g>
			<path d="M194.612,280.761c-6.148,0-11.147,4.996-11.147,11.133c0,6.148,4.999,11.15,11.147,11.15
				c6.125,0,11.127-5.002,11.127-11.15C205.739,285.744,200.737,280.761,194.612,280.761z"/>
		</g>
		<g>
			<path d="M194.612,304.695c-7.079,0-12.793-5.729-12.793-12.802c0-7.062,5.714-12.791,12.793-12.791
				c7.062,0,12.79,5.729,12.79,12.791C207.402,298.967,201.674,304.695,194.612,304.695z"/>
		</g>
		<g>
			<path d="M131.943,244.827c6.158,0,11.148,4.99,11.148,11.146c0,6.161-4.99,11.145-11.148,11.145
				c-6.155,0-11.148-4.983-11.148-11.145C120.795,249.817,125.789,244.827,131.943,244.827z"/>
		</g>
		<g>
			<path d="M146.406,255.967c0-7.963-6.479-14.454-14.463-14.454c-7.962,0-14.457,6.491-14.457,14.454
				c0,7.968,6.494,14.453,14.457,14.453C139.927,270.42,146.406,263.935,146.406,255.967z"/>
		</g>
		<g>
			<path d="M173.037,244.827c6.158,0,11.148,4.99,11.148,11.146c0,6.161-4.99,11.145-11.148,11.145
				c-6.158,0-11.147-4.983-11.147-11.145C161.89,249.817,166.879,244.827,173.037,244.827z"/>
		</g>
		<g>
			<path d="M173.037,268.78c-7.07,0-12.802-5.734-12.802-12.813c0-7.056,5.732-12.809,12.802-12.809
				c7.064,0,12.797,5.753,12.797,12.809C185.834,263.052,180.102,268.78,173.037,268.78z"/>
		</g>
		<g>
			<path d="M211.432,244.827c6.155,0,11.146,4.99,11.146,11.146c0,6.161-4.99,11.145-11.146,11.145
				c-6.16,0-11.145-4.983-11.145-11.145C200.287,249.817,205.271,244.827,211.432,244.827z"/>
		</g>
		<g>
			<path d="M211.432,268.78c-7.079,0-12.79-5.734-12.79-12.813c0-7.056,5.711-12.809,12.79-12.809
				c7.062,0,12.797,5.753,12.797,12.809C224.229,263.052,218.506,268.78,211.432,268.78z"/>
		</g>
	</g>
</g>
<g>
</g>
<g>
</g>
<g>
</g>
<g>
</g>
<g>
</g>
<g>
</g>
<g>
</g>
<g>
</g>
<g>
</g>
<g>
</g>
<g>
</g>
<g>
</g>
<g>
</g>
<g>
</g>
<g>
</g>
</svg>
