<?xml version="1.0" ?><svg viewBox="0 0 64 64" xmlns="http://www.w3.org/2000/svg"><g id="Smoke"><path d="M54.06,25.65a6.48,6.48,0,0,1-2.35-1,17.33,17.33,0,0,0-5.79-12.36,21,21,0,0,0-28.13.25,9.78,9.78,0,0,1-.57-.94c-.59-1.17-1-1.93-1.86-1.93s-1.27.76-1.86,1.93A8.42,8.42,0,0,1,9.79,15.3c-1.16.58-1.93,1-1.93,1.86S8.63,18.43,9.79,19a8.6,8.6,0,0,1,2.85,2.37,16.53,16.53,0,0,0-.44,3.77,17.21,17.21,0,0,0,4,10.94,9.91,9.91,0,0,0,8.19,15.5,10.88,10.88,0,0,0,1.14-.06,8.13,8.13,0,0,0,15.33.08,8.43,8.43,0,0,0,1,.06,9.94,9.94,0,0,0,9.93-9.92,10.77,10.77,0,0,0-.28-2.34,5.55,5.55,0,0,0,2.06-8.92,6.47,6.47,0,0,1,1.3-1.6c.78-.7,1.4-1.25,1.18-2.05S55.08,25.86,54.06,25.65ZM51,31.81a8.62,8.62,0,0,0-4.26-2.45,8.71,8.71,0,0,0,2.46-4.26,8.64,8.64,0,0,0,4.25,2.46A9,9,0,0,0,51,31.81ZM10.69,17.23l-.14-.07.14-.08a10.42,10.42,0,0,0,4.6-4.59l.07-.14.07.14A10.57,10.57,0,0,0,20,17.08l.14.08-.14.07a10.42,10.42,0,0,0-4.6,4.59l-.07.15a1,1,0,0,1-.07-.15A10.42,10.42,0,0,0,10.69,17.23ZM50.13,37.75a1,1,0,0,0-.69.48,1,1,0,0,0-.07.84,8.13,8.13,0,0,1,.47,2.68,7.83,7.83,0,0,1-9.45,7.75,1,1,0,0,0-1.18.75,6.12,6.12,0,0,1-11.94-.07,1,1,0,0,0-1.19-.76,8.25,8.25,0,0,1-1.65.17,7.91,7.91,0,0,1-6.14-12.91,1,1,0,0,0,0-1.31A15.28,15.28,0,0,1,14.2,25.14c0-.37,0-.74.05-1.11a1.35,1.35,0,0,0,1.11.63c.89,0,1.27-.77,1.86-1.94A8.47,8.47,0,0,1,20.93,19c1.16-.58,1.93-1,1.93-1.85s-.77-1.28-1.93-1.86A8.09,8.09,0,0,1,19.12,14a19,19,0,0,1,25.45-.27,15.53,15.53,0,0,1,4.93,8.87,1.25,1.25,0,0,0-1.06-.22c-.81.22-1,1-1.19,2.05A6.55,6.55,0,0,1,45.19,28c-.81.72-1.39,1.24-1.18,2s1,1,2.05,1.18a6.61,6.61,0,0,1,3.57,2.06c.6.67,1.09,1.22,1.73,1.22a1.22,1.22,0,0,0,.32,0c.7-.19.92-.83,1.1-1.66a3.52,3.52,0,0,1,.3,1.4A3.57,3.57,0,0,1,50.13,37.75Z"/><path d="M30.54,37.79c.06-1,.11-1.86-.62-2.28s-1.41,0-2.28.61a6.59,6.59,0,0,1-4,1.07c-1-.07-1.87-.11-2.28.61s0,1.41.61,2.28a6.67,6.67,0,0,1,1.06,4c-.06,1-.1,1.87.62,2.29a1.16,1.16,0,0,0,.58.16,3.43,3.43,0,0,0,1.7-.77,6.59,6.59,0,0,1,4-1.07c1,.06,1.87.11,2.28-.61s0-1.41-.6-2.29A6.59,6.59,0,0,1,30.54,37.79Zm-5.48,6.15a8.63,8.63,0,0,0-1.27-4.75,8.52,8.52,0,0,0,4.74-1.27,8.74,8.74,0,0,0,1.27,4.75A8.56,8.56,0,0,0,25.06,43.94Z"/><path d="M38.65,14.9a1,1,0,0,0-1,1v1.42a1,1,0,0,0,2,0V15.9A1,1,0,0,0,38.65,14.9Z"/><path d="M38.65,21.63a1,1,0,0,0-1,1V24a1,1,0,0,0,2,0V22.63A1,1,0,0,0,38.65,21.63Z"/><path d="M42.72,19H41.3a1,1,0,0,0,0,2h1.42a1,1,0,0,0,0-2Z"/><path d="M36,19H34.58a1,1,0,0,0,0,2H36a1,1,0,0,0,0-2Z"/></g></svg>